<?xml version="1.0" encoding="utf-8"?>
<!DOCTYPE svg PUBLIC "-//W3C//DTD SVG 1.0//EN" "http://www.w3.org/TR/2001/REC-SVG-20010904/DTD/svg10.dtd">
<svg version="1.0" xmlns="http://www.w3.org/2000/svg" width="2560px" height="2560px" viewBox="0 0 2560 2560" preserveAspectRatio="xMidYMid meet">
 <g fill="#000000">
  <path d="M519.5 1443.4 c-23.3 -3.5 -37.4 -12.2 -45.8 -28.1 -7.8 -14.9 -8.7 -24.6 -8.7 -94.6 l0 -55.7 2.6 -1 c3.4 -1.3 20 -1.3 22.5 0 1.8 1 1.9 2.7 1.9 58.5 0 63 0.1 64.7 6.1 77.1 3.1 6.7 7.5 11.1 14.2 14.5 2.3 1.2 4.7 2.9 5.4 3.8 0.8 1.2 1.5 1.3 2.3 0.5 1.6 -1.6 11 0.4 10.3 2.2 -0.3 0.8 0.1 1.4 1 1.4 1.3 0 1.2 0.9 -0.6 6 -1.2 3.3 -2.5 6 -2.8 6 -0.3 0 -1.3 -1.8 -2.2 -4 -1.1 -2.8 -2 -3.8 -3 -3.4 -1.2 0.4 -1.1 1.4 0.7 6 1.8 4.7 2.4 5.4 4.5 5.2 2 -0.2 3 -1.5 4.7 -5.8 1.2 -3 2.5 -6.4 2.8 -7.4 0.4 -1.6 0.7 -1.7 2 -0.6 1.4 1.1 1.6 0.8 1.6 -1.9 0 -2.5 0.5 -3.2 2.8 -3.7 12.9 -2.8 20.1 -6.7 25.2 -13.7 1.7 -2.3 4.3 -7.8 5.8 -12.2 l2.7 -8 0.3 -59.8 0.3 -59.8 2.5 -0.9 c3.2 -1.2 20.4 -1.3 22.3 -0.1 1.1 0.7 1.3 11.3 1.2 63.2 -0.2 58.3 -0.3 63 -2.2 71.4 -2.9 12.8 -7 20.7 -14.8 28.6 -11.8 11.9 -23.1 15.8 -47.1 16.4 -8.5 0.2 -16.8 0.1 -18.5 -0.1z m3.5 -20.8 c0 -0.8 -0.4 -1.7 -0.8 -2 -1.3 -0.8 -3.5 1.1 -2.8 2.3 1 1.6 3.6 1.4 3.6 -0.3z"/>
  <path d="M1407.5 1443 c-20.6 -2.4 -44.3 -15.6 -57.7 -32 -6.4 -7.8 -12.5 -19.3 -16.4 -31 -2.8 -8.2 -2.9 -9.2 -2.9 -28 0 -18.7 0.1 -19.9 2.8 -28.5 9.5 -29.8 30.6 -50.5 60.8 -59.7 10 -3 11.1 -3.2 28.5 -3.2 12.4 0 19.4 0.4 22.5 1.3 2.4 0.7 6.7 2 9.4 2.8 7.5 2.2 20.2 9 27.2 14.5 19.2 15.2 30.1 34.9 33.4 60.3 4.2 32.7 -7.9 64.4 -32 83.9 -7.6 6.1 -21.5 13.4 -31.5 16.6 -11.7 3.6 -28.9 4.8 -44.1 3z m30.5 -26.6 c27.8 -7.6 50.3 -36.4 50.2 -64.4 -0.1 -29.2 -21.2 -56.1 -51.2 -65.1 -6.8 -2.1 -23.2 -1.8 -30.5 0.5 -12 3.7 -20.9 9.2 -29 17.8 -8.7 9.2 -13.3 16.7 -17.2 27.6 -2.4 6.7 -2.7 9.2 -2.7 19.2 0 12.7 1.6 19.1 7.4 29.7 15.6 28.3 44.9 42.3 73 34.7z"/>
  <path d="M2037.3 1442.6 c-10.1 -2 -17.4 -5.6 -24.4 -12.3 -9.6 -9.2 -16 -24.5 -13.3 -31.8 0.4 -0.9 3.7 -3.2 7.5 -5.1 9.5 -4.8 16.9 -4.5 16.9 0.6 0 3 5.9 13.6 9.7 17.3 2 2.1 6.1 4.9 9 6.3 17.7 8.7 41.8 -7.3 40 -26.5 -0.6 -6.8 -3.4 -12.7 -8.9 -18.7 -4.7 -5.1 -11.9 -9.3 -28.3 -16.4 -6.6 -2.8 -14.1 -6.5 -16.8 -8.1 -2.6 -1.6 -5.1 -2.9 -5.5 -2.9 -0.5 0 -3.2 -2.4 -6.1 -5.2 -6 -6 -12.1 -17.1 -12.1 -22 0 -1.8 -0.5 -5.3 -1.1 -7.8 -1.4 -6.3 0.5 -19.8 3.7 -26.3 3.8 -7.5 10.7 -14.2 18.5 -18.1 9.8 -4.9 16.1 -6 31.4 -5.3 15.7 0.7 23.1 3.2 31.4 10.4 7.3 6.4 10.1 11.1 10.1 17 l-0.1 4.8 -6.8 4.2 c-5.2 3.3 -7.9 4.3 -11 4.3 -2.2 0 -4.1 -0.4 -4.1 -0.8 0 -2.3 -10.6 -12.3 -15.5 -14.6 -6.9 -3.3 -11.7 -3.3 -18.4 0 -6.1 3.1 -10.2 8.1 -12.1 14.9 -1.1 3.9 -1 5.1 0.5 9.2 2.4 6.3 9.4 13 17.8 17.1 7 3.4 8.6 5.1 10.8 11.5 1.7 4.9 5.5 5.3 7.2 0.7 0.6 -1.6 1.5 -3 2 -3 0.5 0 5 2.1 10 4.8 11.4 5.9 20.8 14.4 24.8 22.4 5.8 11.5 7.3 30.3 3.6 44.3 -4.5 16.6 -17.7 29.5 -35 34.1 -7.8 2.1 -26.8 2.6 -35.4 1z"/>
  <path d="M1664.6 1431.2 c-2.7 -6.4 -6.5 -15 -8.3 -19 -1.8 -3.9 -3.3 -7.4 -3.3 -7.7 0 -0.2 -4.2 -10.3 -9.4 -22.2 -22 -50.9 -20.3 -47 -21 -46.2 -0.2 0.2 -1.2 4.7 -2.1 9.9 -1 5.2 -2.1 11.5 -2.6 14 -2.5 13.9 -4.1 22.4 -5.5 29.5 -0.8 4.4 -1.9 10.5 -2.4 13.5 -0.5 3 -1.6 9.3 -2.5 14 -0.9 4.7 -2 11.2 -2.6 14.5 -0.6 3.4 -1.7 6.5 -2.6 7.3 -1.8 1.3 -17.8 1.7 -22 0.6 -3.2 -0.9 -3 -5 1.2 -26.3 1.9 -9.7 4.1 -21.2 5 -25.6 3.2 -16.8 9.5 -49.3 11 -56.5 2.7 -13.1 10.2 -52.9 12.1 -63.5 1.1 -6.3 1.3 -6.5 5.9 -6.5 2.5 0 4.5 0.5 4.8 1.3 0.3 0.6 2.2 5.3 4.2 10.2 2 5 4.9 11.9 6.5 15.5 1.5 3.6 6.3 14.8 10.5 25 12.4 29.8 25.4 60.4 26.6 62.3 0.7 1.3 0.7 2.3 -0.1 3.2 -1.5 1.8 -0.4 3.6 1.5 2.8 0.9 -0.3 1.5 0.1 1.5 1 0 0.8 -0.5 1.7 -1.2 1.9 -0.6 0.2 -0.8 1 -0.4 1.7 0.5 0.7 1.4 1 2.2 0.7 0.8 -0.3 1.4 0.1 1.4 0.8 0 0.8 -0.5 1.6 -1.2 1.8 -1.5 0.5 -0.1 2.8 1.8 2.8 0.8 0 1.4 -0.9 1.4 -2.1 0 -1.1 4.2 -12 9.4 -24.2 5.2 -12.2 14.2 -33.7 20.1 -47.7 5.9 -14 11.3 -26.8 12 -28.5 1.7 -3.9 8.8 -21.1 10.5 -25.3 1.2 -3.1 1.5 -3.3 5.9 -3 4.5 0.3 4.6 0.4 5.3 4.3 3.6 19.4 8.7 45.8 18.9 98 2.1 11 4.6 23.6 5.4 28 0.9 4.4 2.9 14.8 4.5 23 3.2 16.2 3.7 22.4 1.8 24.3 -1.8 1.8 -21.2 1.6 -23 -0.2 -0.8 -0.7 -5.3 -22.5 -10.8 -52 -5.2 -27.8 -9.7 -50.6 -10 -50.6 -0.4 0 -1.8 2.8 -3.3 6.3 -3.4 8.1 -19.5 45.3 -21.2 49.2 -0.8 1.7 -3.2 7.3 -5.3 12.5 -2.2 5.2 -6.8 16.1 -10.3 24.3 l-6.3 14.7 -4.6 0 -4.5 0 -4.9 -11.8z m20 -31.2 c1.2 -3 2.5 -6.4 2.8 -7.4 0.4 -1.6 0.7 -1.7 2 -0.6 1.4 1.1 1.6 0.4 1.6 -6.5 0 -4.3 -0.2 -7.6 -0.4 -7.4 -2.4 2.4 -8.6 10.5 -8.6 11.1 0 0.5 0.6 0.8 1.4 0.8 1.2 0 1 1.1 -0.7 6 -1.2 3.3 -2.5 6 -2.8 6 -0.3 0 -1.3 -1.8 -2.2 -4 -1.1 -2.8 -2 -3.8 -3 -3.4 -1.2 0.4 -1.1 1.4 0.7 6 1.8 4.7 2.4 5.4 4.5 5.2 2 -0.2 3 -1.5 4.7 -5.8z"/>
  <path d="M664.7 1439.3 c-0.4 -0.3 -0.7 -2.4 -0.7 -4.6 0 -3.4 1.6 -6.5 9.7 -19.1 5.3 -8.2 10.1 -15.9 10.7 -17.1 0.6 -1.1 11 -17.7 23.1 -36.8 40 -63.2 45.5 -72.1 45.5 -73.2 0 -0.3 -16.3 -0.6 -36.2 -0.7 l-36.3 -0.3 -0.3 -11.2 c-0.2 -10.3 -0.1 -11.3 1.7 -12.3 1.4 -0.7 19.9 -0.9 57.8 -0.8 l55.8 0.3 0.3 4.3 c0.3 3.8 -0.5 5.5 -8.3 18 -4.8 7.5 -9 14.4 -9.5 15.2 -0.5 0.8 -13.6 21.8 -29.1 46.5 -15.6 24.8 -31.1 49.7 -34.6 55.5 l-6.3 10.5 41.8 0.3 c37.8 0.2 41.8 0.4 43 1.9 1.5 2.1 1.7 19.6 0.2 22.4 -1 1.8 -2.8 1.9 -64.4 1.9 -34.8 0 -63.6 -0.3 -63.9 -0.7z"/>
  <path d="M905.2 1439.1 c-1.1 -0.6 -1.4 -8.8 -1.5 -39.9 -0.2 -29.7 -0.5 -39.4 -1.4 -40.4 -0.7 -0.6 -1.3 -2 -1.3 -2.9 0 -0.9 -0.7 -1.9 -1.5 -2.3 -0.8 -0.3 -1.5 -1.2 -1.5 -2.1 0 -0.8 -0.4 -1.5 -0.9 -1.5 -0.6 0 -11 -15.8 -15.6 -23.8 -0.5 -1 -4 -6.5 -7.6 -12.2 -3.6 -5.8 -9 -14.5 -11.9 -19.5 -3 -4.9 -7.2 -11.7 -9.3 -14.9 -2.9 -4.3 -4.2 -7.3 -4.5 -10.7 -0.4 -4.4 -0.2 -4.9 1.9 -5.4 1.3 -0.3 7.6 -0.4 13.9 -0.3 l11.5 0.3 9.1 15 c5 8.3 13.7 22.9 19.4 32.5 5.7 9.6 10.9 18.3 11.6 19.4 1.1 1.7 1.5 1.5 4 -2.5 3 -4.7 20 -33.5 24.3 -41 9.8 -17.3 13.6 -22.7 16.5 -23.3 3.8 -0.8 22 -0.8 24 0 1 0.4 1.6 1.8 1.6 4.1 0 3.7 -0.5 4.6 -37.2 63.7 l-18.8 30.1 0 37.7 c0 20.7 -0.3 38.3 -0.6 39.2 -0.5 1.3 -2.5 1.6 -11.8 1.6 -6.1 0 -11.7 -0.4 -12.4 -0.9z m11.4 -71.1 c1.2 -3 2.5 -6.4 2.8 -7.4 0.4 -1.6 0.7 -1.7 2 -0.6 1.4 1.1 1.6 0.4 1.6 -6.5 0 -4.3 -0.2 -7.6 -0.4 -7.4 -2.4 2.4 -8.6 10.5 -8.6 11.1 0 0.5 0.6 0.8 1.4 0.8 1.2 0 1 1.1 -0.7 6 -1.2 3.3 -2.5 6 -2.8 6 -0.3 0 -1.3 -1.8 -2.2 -4 -1.1 -2.8 -2 -3.8 -3 -3.4 -1.2 0.4 -1.1 1.4 0.7 6 1.8 4.7 2.4 5.4 4.5 5.2 2 -0.2 3 -1.5 4.7 -5.8z m-9.6 -9.4 c0 -0.8 -0.4 -1.7 -0.8 -2 -1.3 -0.8 -3.5 1.1 -2.8 2.3 1 1.6 3.6 1.4 3.6 -0.3z m-2.4 -4.7 c0.3 -0.6 0.2 -1.5 -0.2 -1.9 -1.2 -1.2 -3.8 0.5 -3 1.9 0.9 1.4 2.3 1.4 3.2 0z m-2.3 -6.5 c-0.3 -0.8 -0.9 -1.4 -1.3 -1.4 -1.3 0 -2.2 1.9 -1.5 3 0.9 1.4 3.4 0 2.8 -1.6z"/>
  <path d="M1120.8 1438.9 c-1.7 -0.9 -1.8 -6.2 -1.8 -87.4 0 -84.4 0 -86.5 1.9 -87.5 2.1 -1.1 19.9 -1.4 22.5 -0.4 1.4 0.5 1.6 4.3 1.6 31.8 0 22.9 0.3 31.5 1.2 32.4 0.9 0.9 11.2 1.2 40.4 1.2 21.6 0 39.9 -0.3 40.8 -0.6 1.4 -0.5 1.6 -4.2 1.6 -31.3 0 -17.5 0.4 -31.2 1 -32.1 1.2 -1.9 20.7 -2.8 23.9 -1.1 l2.1 1.2 0 86.2 c0 65.8 -0.3 86.6 -1.2 87.5 -1.9 1.9 -22.2 1.6 -24.2 -0.4 -1.4 -1.3 -1.6 -6.5 -1.6 -41.8 0 -29.9 -0.3 -40.5 -1.2 -41.4 -0.9 -0.9 -11.4 -1.2 -41 -1.2 -38.3 0 -39.8 0.1 -40.8 1.9 -0.6 1.3 -1 16.5 -1 42.4 0 36 -0.2 40.6 -1.6 41.1 -2.6 1 -20.8 0.6 -22.6 -0.5z"/>
  <path d="M1841.2 1438.8 c-0.9 -0.9 -1.2 -21.8 -1.2 -87.9 0 -78.1 0.2 -86.7 1.6 -87.3 2.1 -0.8 86.3 -0.8 90.3 0 l3.2 0.7 -0.3 11.6 -0.3 11.6 -33 0.3 c-18.1 0.1 -33.6 0.4 -34.3 0.7 -1 0.3 -1.2 5.1 -1 21.2 l0.3 20.8 34 0.5 34 0.5 0.3 11.8 c0.1 6.4 0.1 11.8 0 11.9 -0.2 0.1 -15.6 0.5 -34.3 0.8 l-34 0.5 -0.3 27 c-0.1 14.9 0 28 0.3 29.2 l0.5 2.3 33.8 0.2 33.7 0.3 0.3 11.6 c0.3 11.4 0.2 11.7 -2 12.3 -1.3 0.3 -22.1 0.6 -46.3 0.6 -33 0 -44.4 -0.3 -45.3 -1.2z m85.1 -155.4 c-0.3 -0.8 -0.9 -1.4 -1.3 -1.4 -1.3 0 -2.2 1.9 -1.5 3 0.9 1.4 3.4 0 2.8 -1.6z"/>
  <path d="M1569 1236.2 c0 -3.2 0.5 -4.1 2.5 -5 1.4 -0.7 3.9 -1.2 5.5 -1.2 2.7 0 3 0.3 3 3.1 0 3.9 -3.3 6.8 -7.7 6.9 -3.2 0 -3.3 -0.2 -3.3 -3.8z"/>
  <path d="M1633.6 1176.9 c-0.3 -1.7 -0.6 -4.4 -0.6 -6 0 -2.2 -0.5 -2.9 -2 -2.9 -1.6 0 -2 -0.7 -2 -3.4 0 -3.7 1.5 -4.6 7.6 -4.6 l3.1 0 0.6 6.8 c1.3 12.8 1.2 13.2 -2.7 13.2 -3 0 -3.4 -0.4 -4 -3.1z"/>
 </g>
 <g fill="#ffffff">
  <path d="M0 1280 l0 -1280 1280 0 1280 0 0 1280 0 1280 -1280 0 -1280 0 0 -1280z m2196.6 1048 c1.2 -3 2.5 -6.4 2.8 -7.4 0.4 -1.6 0.7 -1.7 2 -0.6 1.4 1.1 1.6 0.4 1.6 -6.5 0 -4.3 -0.2 -7.6 -0.4 -7.4 -2.4 2.4 -8.6 10.5 -8.6 11.1 0 0.5 0.6 0.8 1.4 0.8 1.2 0 1 1.1 -0.7 6 -1.2 3.3 -2.5 6 -2.8 6 -0.3 0 -1.3 -1.8 -2.2 -4 -1.1 -2.8 -2 -3.8 -3 -3.4 -1.2 0.4 -1.1 1.4 0.7 6 1.8 4.7 2.4 5.4 4.5 5.2 2 -0.2 3 -1.5 4.7 -5.8z m-9.6 -9.4 c0 -0.8 -0.4 -1.7 -0.8 -2 -1.3 -0.8 -3.5 1.1 -2.8 2.3 1 1.6 3.6 1.4 3.6 -0.3z m-2.4 -4.7 c0.3 -0.6 0.2 -1.5 -0.2 -1.9 -1.2 -1.2 -3.8 0.5 -3 1.9 0.9 1.4 2.3 1.4 3.2 0z m-2.3 -6.5 c-0.3 -0.8 -0.9 -1.4 -1.3 -1.4 -1.3 0 -2.2 1.9 -1.5 3 0.9 1.4 3.4 0 2.8 -1.6z m-1393.7 -171.4 c1.2 -3 2.5 -6.4 2.8 -7.4 0.4 -1.6 0.7 -1.7 2 -0.6 1.4 1.1 1.6 0.4 1.6 -6.5 0 -4.3 -0.2 -7.6 -0.4 -7.4 -2.4 2.4 -8.6 10.5 -8.6 11.1 0 0.5 0.6 0.8 1.4 0.8 1.2 0 1 1.1 -0.7 6 -1.2 3.3 -2.5 6 -2.8 6 -0.3 0 -1.3 -1.8 -2.2 -4 -1.1 -2.8 -2 -3.8 -3 -3.4 -1.2 0.4 -1.1 1.4 0.7 6 1.8 4.7 2.4 5.4 4.5 5.2 2 -0.2 3 -1.5 4.7 -5.8z m-9.6 -9.4 c0 -0.8 -0.4 -1.7 -0.8 -2 -1.3 -0.8 -3.5 1.1 -2.8 2.3 1 1.6 3.6 1.4 3.6 -0.3z m-2.4 -4.7 c0.3 -0.6 0.2 -1.5 -0.2 -1.9 -1.2 -1.2 -3.8 0.5 -3 1.9 0.9 1.4 2.3 1.4 3.2 0z m-2.3 -6.5 c-0.3 -0.8 -0.9 -1.4 -1.3 -1.4 -1.3 0 -2.2 1.9 -1.5 3 0.9 1.4 3.4 0 2.8 -1.6z m-241.7 -203.4 c1.2 -3 2.5 -6.4 2.8 -7.4 0.4 -1.6 0.7 -1.7 2 -0.6 1.4 1.1 1.6 0.4 1.6 -6.5 0 -4.3 -0.2 -7.6 -0.4 -7.4 -2.4 2.4 -8.6 10.5 -8.6 11.1 0 0.5 0.6 0.8 1.4 0.8 1.2 0 1 1.1 -0.7 6 -1.2 3.3 -2.5 6 -2.8 6 -0.3 0 -1.3 -1.8 -2.2 -4 -1.1 -2.8 -2 -3.8 -3 -3.4 -1.2 0.4 -1.1 1.4 0.7 6 1.8 4.7 2.4 5.4 4.5 5.2 2 -0.2 3 -1.5 4.7 -5.8z m-9.6 -9.4 c0 -0.8 -0.4 -1.7 -0.8 -2 -1.3 -0.8 -3.5 1.1 -2.8 2.3 1 1.6 3.6 1.4 3.6 -0.3z m-2.4 -4.7 c0.3 -0.6 0.2 -1.5 -0.2 -1.9 -1.2 -1.2 -3.8 0.5 -3 1.9 0.9 1.4 2.3 1.4 3.2 0z m-2.3 -6.5 c-0.3 -0.8 -0.9 -1.4 -1.3 -1.4 -1.3 0 -2.2 1.9 -1.5 3 0.9 1.4 3.4 0 2.8 -1.6z m-497.7 -107.4 c1.2 -3 2.5 -6.4 2.8 -7.4 0.4 -1.6 0.7 -1.7 2 -0.6 1.4 1.1 1.6 0.4 1.6 -6.5 0 -4.3 -0.2 -7.6 -0.4 -7.4 -2.4 2.4 -8.6 10.5 -8.6 11.1 0 0.5 0.6 0.8 1.4 0.8 1.2 0 1 1.1 -0.7 6 -1.2 3.3 -2.5 6 -2.8 6 -0.3 0 -1.3 -1.8 -2.2 -4 -1.1 -2.8 -2 -3.8 -3 -3.4 -1.2 0.4 -1.1 1.4 0.7 6 1.8 4.7 2.4 5.4 4.5 5.2 2 -0.2 3 -1.5 4.7 -5.8z m-9.6 -9.4 c0 -0.8 -0.4 -1.7 -0.8 -2 -1.3 -0.8 -3.5 1.1 -2.8 2.3 1 1.6 3.6 1.4 3.6 -0.3z m-2.4 -4.7 c0.3 -0.6 0.2 -1.5 -0.2 -1.9 -1.2 -1.2 -3.8 0.5 -3 1.9 0.9 1.4 2.3 1.4 3.2 0z m-2.3 -6.5 c-0.3 -0.8 -0.9 -1.4 -1.3 -1.4 -1.3 0 -2.2 1.9 -1.5 3 0.9 1.4 3.4 0 2.8 -1.6z m1422.3 -107.4 c1.2 -3 2.5 -6.4 2.8 -7.4 0.4 -1.6 0.7 -1.7 2 -0.6 1.4 1.1 1.6 0.4 1.6 -6.5 0 -4.3 -0.2 -7.6 -0.4 -7.4 -2.4 2.4 -8.6 10.5 -8.6 11.1 0 0.5 0.6 0.8 1.4 0.8 1.2 0 1 1.1 -0.7 6 -1.2 3.3 -2.5 6 -2.8 6 -0.3 0 -1.3 -1.8 -2.2 -4 -1.1 -2.8 -2 -3.8 -3 -3.4 -1.2 0.4 -1.1 1.4 0.7 6 1.8 4.7 2.4 5.4 4.5 5.2 2 -0.2 3 -1.5 4.7 -5.8z m-9.6 -9.4 c0 -0.8 -0.4 -1.7 -0.8 -2 -1.3 -0.8 -3.5 1.1 -2.8 2.3 1 1.6 3.6 1.4 3.6 -0.3z m-2.4 -4.7 c0.3 -0.6 0.2 -1.5 -0.2 -1.9 -1.2 -1.2 -3.8 0.5 -3 1.9 0.9 1.4 2.3 1.4 3.2 0z m-2.3 -6.5 c-0.3 -0.8 -0.9 -1.4 -1.3 -1.4 -1.3 0 -2.2 1.9 -1.5 3 0.9 1.4 3.4 0 2.8 -1.6z m-856.5 -197.4 c10.8 -3 16.9 -6.5 24.3 -13.9 7.9 -7.9 11.9 -15.8 14.8 -28.8 1.9 -8.5 2.1 -12.6 2.1 -68.4 0.1 -43.6 -0.2 -59.4 -1.1 -59.9 -1.7 -1.1 -13.4 -1.1 -16.3 -0.1 l-2.5 1 -0.3 59.8 -0.3 59.8 -2.7 8 c-5.4 16 -14.6 23.4 -32.2 26 l-4.6 0.7 0 -6.3 0 -6.3 -3 3.4 c-1.7 1.9 -3.8 4.8 -4.8 6.3 -1.4 2.4 -2.2 2.8 -4.7 2.4 -1.6 -0.3 -4.8 -0.8 -7 -1.1 -5.5 -0.9 -13.4 -4.7 -17.8 -8.6 -2 -1.7 -5 -6 -6.6 -9.4 -6 -12.4 -6.1 -14.1 -6.1 -77.1 0 -55.8 -0.1 -57.5 -1.9 -58.5 -2.5 -1.3 -13.1 -1.3 -16.5 0 l-2.6 1 0 52.7 c0 66.8 1 76.8 8.7 91.6 8.4 15.9 22.6 24.6 45.8 28.1 6.9 1 28.1 -0.4 35.3 -2.4z m875.8 2.1 c21.3 -2.5 43.9 -14.5 58.2 -31 15 -17.2 23.2 -44.6 20.3 -67.1 -3.4 -25.1 -14.4 -44.8 -33.4 -59.8 -7.1 -5.6 -19.7 -12.3 -27.7 -14.6 -3 -0.9 -7.1 -2.2 -9 -2.8 -2 -0.6 -10.2 -1.1 -19 -1.1 -14.5 0 -16.2 0.2 -25.9 3.1 -30.2 9.2 -51.3 30 -60.7 59.7 -2.7 8.4 -2.9 10.2 -2.9 25.5 0 15.5 0.2 17 2.9 25 8.3 24.9 22.7 42.1 44.6 53.4 17.2 8.9 33.4 11.9 52.6 9.7z m635.4 -1.3 c25.8 -6.2 41.7 -31.6 36.6 -58.5 -0.8 -4.6 -2.9 -10.9 -4.5 -14.1 -4 -7.9 -13.5 -16.6 -24.4 -22.2 -4.8 -2.5 -8.7 -5 -8.7 -5.6 0 -0.6 0.6 -2.7 1.4 -4.5 0.7 -1.9 1.6 -4.2 2 -5.3 0.5 -1.5 0.9 -1.6 2.1 -0.6 1.3 1.1 1.5 0.2 1.5 -6.5 0 -4.3 -0.2 -7.6 -0.4 -7.4 -2.4 2.4 -8.6 10.5 -8.6 11.1 0 0.5 0.6 0.8 1.4 0.8 1.2 0 1 1.1 -0.7 6 -1.2 3.3 -2.5 6 -2.8 6 -0.3 0 -1.3 -1.8 -2.2 -4 -1.1 -2.9 -2 -3.8 -3.1 -3.4 -1.2 0.5 -1.3 1 -0.5 2.6 0.6 1.1 0.9 2.1 0.7 2.3 -0.7 0.8 -19.1 -9.1 -22.8 -12.3 -13.5 -11.3 -11.3 -32.9 4.2 -40.6 7.3 -3.6 16.7 -3.6 24.3 0 4.9 2.3 15.5 12.3 15.5 14.6 0 1.6 2.4 0.7 9.1 -3.4 4.2 -2.7 6.8 -5 6.9 -6.1 0.1 -5.7 -12.1 -17.4 -22.1 -21.2 -8.2 -3.2 -23.5 -4.4 -32.2 -2.6 -13.2 2.8 -25.5 11.8 -31.1 22.8 -2.7 5.5 -4.5 16.1 -3.5 20.8 0.4 1.7 0.7 4.7 0.8 6.8 0.2 5.4 6.1 16.4 12.2 22.5 2.9 2.8 5.6 5.2 6.1 5.2 0.4 0 2.9 1.3 5.5 2.9 2.7 1.6 10.2 5.3 16.8 8.1 16.4 7.1 23.6 11.3 28.3 16.4 6.4 6.9 8.5 11.9 9 21.4 0.7 12 -2.8 19.8 -11.6 26.3 -6 4.4 -11.6 6 -21 6 -9.7 0.1 -16.3 -2.5 -22.5 -8.8 -3.8 -3.8 -9.7 -14.3 -9.7 -17.3 0 -1 -0.7 -2.3 -1.6 -3.1 -1.3 -1.1 -2.7 -0.7 -8.9 2.4 -9.6 4.7 -9.9 5.8 -4.7 16.9 9.2 19.1 26.8 28.7 50.2 27.2 4.7 -0.3 10.5 -1 13 -1.6z m-387.1 -13.5 c3.5 -8.2 8.1 -19.1 10.3 -24.3 2.1 -5.2 4.5 -10.8 5.3 -12.5 1.5 -3.5 16.6 -38.4 22.8 -52.8 2.8 -6.6 4.6 -9.7 5.6 -9.5 1.1 0.2 3.9 13.6 11.6 54.6 6.9 37.1 10.6 54.6 11.6 55.3 2.4 1.5 15.5 1.1 16.9 -0.6 1.2 -1.5 1.2 -1.6 -6.6 -41.5 -0.8 -4.1 -3.2 -16.5 -5.3 -27.5 -11.1 -56.5 -14.9 -76.3 -18.9 -98 -1 -5.1 -3.5 -5.8 -5.2 -1.3 -1.7 4.3 -8.8 21.5 -10.5 25.3 -0.8 1.7 -8.4 19.9 -17.1 40.5 -8.7 20.6 -18.1 42.9 -20.8 49.5 -2.8 6.7 -5.4 12.2 -5.8 12.3 -0.5 0.1 -1.3 0.2 -1.9 0.2 -0.5 0 -0.7 0.6 -0.3 1.3 0.5 0.8 0.4 0.9 -0.4 0.2 -0.5 -0.5 -2.2 -3.9 -3.7 -7.5 -1.5 -3.6 -3.5 -8.3 -4.5 -10.5 -3.3 -7.6 -18.8 -44 -26.5 -62.5 -4.2 -10.2 -9 -21.4 -10.5 -25 -1.6 -3.6 -4.5 -10.5 -6.5 -15.5 -2 -4.9 -3.9 -9.6 -4.2 -10.2 -0.3 -0.7 -1.1 -1.3 -1.8 -1.3 -1.4 0 -2 1.3 -2.9 6.5 -1.9 10.6 -9.4 50.4 -12.1 63.5 -0.9 4.1 -3.3 16.7 -5.5 28 -5.9 30.4 -6.5 33.8 -10.6 54.3 -2 10.3 -3.3 19.1 -2.9 19.5 0.3 0.4 4.1 0.8 8.3 1 9.6 0.4 10.8 -0.4 12.1 -8.3 0.6 -3.3 1.7 -9.8 2.6 -14.5 0.9 -4.7 2 -11 2.5 -14 0.5 -3 1.6 -9.1 2.4 -13.5 1.4 -7.1 2.5 -13.3 5.6 -30 0.5 -2.7 1.7 -8.8 2.5 -13.5 0.9 -4.7 1.9 -10.5 2.3 -12.9 1.3 -8.6 2.5 -7.2 11.8 14.4 3.1 7.2 9.8 22.8 15 34.8 5.2 11.9 9.4 22 9.4 22.2 0 0.3 1.5 3.8 3.3 7.7 1.8 4 5.6 12.6 8.3 19 3.2 7.7 5.4 11.8 6.4 11.8 1.1 0 3.7 -4.9 7.9 -14.7z m-891.9 9.8 c1.3 -2.6 1.3 -13.7 -0.1 -16.2 -1 -1.9 -2.2 -2 -43.2 -1.9 -49.9 0.1 -44.7 0.2 -44.7 -0.9 0 -1.2 11.7 -20.3 44.1 -71.9 15.4 -24.6 28.4 -45.4 28.9 -46.2 0.5 -0.8 4.7 -7.7 9.5 -15.3 4.9 -7.8 8.4 -14.4 8.1 -15.2 -0.5 -1.3 -8 -1.5 -53.4 -1.5 -41.1 0 -53.2 0.3 -54.6 1.3 -1.4 1 -1.6 2.6 -1.4 9.2 l0.3 8 37 0.3 c20.3 0.1 37.3 0.6 37.8 1.1 1.2 1.2 -1.3 5.3 -47.8 78.8 -12.1 19.1 -22.5 35.7 -23.1 36.8 -0.6 1.2 -5.5 9 -10.8 17.3 -5.8 9 -9.6 15.8 -9.2 16.7 0.5 1.3 8.3 1.5 61 1.5 58.8 0 60.6 -0.1 61.6 -1.9z m136.4 0.3 c0.3 -0.9 0.6 -18.5 0.6 -39.2 l0 -37.7 18.8 -30.1 c36.9 -59.5 37.6 -60.6 36.1 -61.5 -1.6 -1 -14.2 -1.2 -18.5 -0.3 -2.9 0.6 -6.7 6 -16.5 23.3 -2.8 4.9 -19 32.3 -25.4 42.9 -2.1 3.4 -4.3 6.1 -4.9 5.9 -0.5 -0.2 -6.6 -9.8 -13.5 -21.3 -6.8 -11.5 -16.5 -27.6 -21.5 -35.9 l-9.1 -15 -9.5 -0.3 c-5.2 -0.1 -10.1 0.2 -10.9 0.7 -1.7 1.1 -1.3 1.9 9.5 19.3 15.3 24.7 19.9 32.2 21.9 35.4 1.1 1.8 4.8 7.8 8.2 13.2 3.4 5.4 6.7 11.1 7.2 12.5 0.6 1.5 1.5 2.7 2.1 2.7 0.7 0 0.9 0.8 0.5 2.1 -0.5 1.5 -0.2 2.2 1.4 2.6 2.3 0.6 2.7 1.9 0.9 2.6 -0.9 0.4 -0.5 1.2 1.2 2.7 1.6 1.4 2.1 2.3 1.3 2.6 -0.9 0.4 -0.9 1.3 -0.2 3.1 0.5 1.5 0.9 16.6 0.9 36.1 -0.1 26.5 0.2 33.7 1.2 34.3 0.7 0.5 5 0.9 9.4 0.9 6.6 0 8.3 -0.3 8.8 -1.6z m214 1 c1.4 -0.5 1.6 -5.1 1.6 -41.1 0 -25.9 0.4 -41.1 1 -42.4 1 -1.8 2.6 -1.9 43.8 -1.9 32 0 43.1 0.3 44 1.2 0.9 0.9 1.2 11.5 1.2 41.4 0 35.3 0.2 40.5 1.6 41.8 1.9 2 16.3 2.3 18.2 0.4 0.9 -0.9 1.2 -21 1.2 -84.5 l0 -83.2 -2.1 -1.2 c-3.1 -1.6 -16.7 -0.8 -17.9 1.1 -0.6 0.9 -1 14.9 -1 32.1 0 27.1 -0.2 30.8 -1.6 31.3 -0.9 0.3 -20.6 0.6 -43.8 0.6 -31.5 0 -42.5 -0.3 -43.4 -1.2 -0.9 -0.9 -1.2 -9.5 -1.2 -32.4 0 -35.5 0.9 -32.4 -9.6 -32.4 -11.6 0 -10.4 -10.1 -10.4 85.5 0 78.4 0.1 83.5 1.8 84.4 1.9 1.1 14.1 1.5 16.6 0.5z m789.4 0 c2.2 -0.6 2.3 -1 2 -9.3 l-0.3 -8.6 -33.7 -0.3 -33.8 -0.2 -0.5 -2.3 c-0.3 -1.2 -0.4 -15.7 -0.3 -32.2 l0.3 -30 34 -0.5 c18.7 -0.3 34.1 -0.7 34.3 -0.8 0.1 -0.1 0.1 -4.1 0 -8.9 l-0.3 -8.8 -34 -0.5 -34 -0.5 0 -24 0 -24 32.9 -0.2 c18.2 -0.1 33.6 -0.5 34.3 -0.7 0.9 -0.4 1.3 -2.9 1.3 -8.9 l0 -8.4 -3.1 -0.7 c-4 -0.8 -82.2 -0.8 -84.3 0 -1.4 0.6 -1.6 8.9 -1.6 84.3 0 63.8 0.3 84 1.2 84.9 0.9 0.9 11.6 1.2 42.3 1.2 22.5 0 42 -0.3 43.3 -0.6z m-1409.2 -18.5 c0.3 -0.6 0.2 -1.5 -0.2 -1.9 -1.2 -1.2 -3.8 0.5 -3 1.9 0.9 1.4 2.3 1.4 3.2 0z m-2.3 -6.5 c-0.3 -0.8 -0.9 -1.4 -1.3 -1.4 -1.3 0 -2.2 1.9 -1.5 3 0.9 1.4 3.4 0 2.8 -1.6z m1156.7 -20.8 c0 -0.8 -0.4 -1.7 -0.8 -2 -1.3 -0.8 -3.5 1.1 -2.8 2.3 1 1.6 3.6 1.4 3.6 -0.3z m-2.4 -4.7 c0.3 -0.6 0.2 -1.5 -0.2 -1.9 -1.2 -1.2 -3.8 0.5 -3 1.9 0.9 1.4 2.3 1.4 3.2 0z m-2.3 -6.5 c-0.3 -0.8 -0.9 -1.4 -1.3 -1.4 -1.3 0 -2.2 1.9 -1.5 3 0.9 1.4 3.4 0 2.8 -1.6z m388.7 -52.8 c0 -0.8 -0.4 -1.7 -0.8 -2 -1.3 -0.8 -3.5 1.1 -2.8 2.3 1 1.6 3.6 1.4 3.6 -0.3z m-2.4 -4.7 c0.3 -0.6 0.2 -1.5 -0.2 -1.9 -1.2 -1.2 -3.8 0.5 -3 1.9 0.9 1.4 2.3 1.4 3.2 0z m-2.3 -6.5 c-0.3 -0.8 -0.9 -1.4 -1.3 -1.4 -1.3 0 -2.2 1.9 -1.5 3 0.9 1.4 3.4 0 2.8 -1.6z m-113.7 -11.4 c1.2 -3 2.5 -6.4 2.8 -7.4 0.4 -1.6 0.7 -1.7 2 -0.6 1.4 1.1 1.6 0.4 1.6 -6.5 0 -4.3 -0.2 -7.6 -0.4 -7.4 -2.4 2.4 -8.6 10.5 -8.6 11.1 0 0.5 0.6 0.8 1.4 0.8 1.2 0 1 1.1 -0.7 6 -1.2 3.3 -2.5 6 -2.8 6 -0.3 0 -1.3 -1.8 -2.2 -4 -1.1 -2.8 -2 -3.8 -3 -3.4 -1.2 0.4 -1.1 1.4 0.7 6 1.8 4.7 2.4 5.4 4.5 5.2 2 -0.2 3 -1.5 4.7 -5.8z m-9.6 -9.4 c0 -0.8 -0.4 -1.7 -0.8 -2 -1.3 -0.8 -3.5 1.1 -2.8 2.3 1 1.6 3.6 1.4 3.6 -0.3z m-2.4 -4.7 c0.3 -0.6 0.2 -1.5 -0.2 -1.9 -1.2 -1.2 -3.8 0.5 -3 1.9 0.9 1.4 2.3 1.4 3.2 0z m268 -81.9 c1.2 -3 2.5 -6.4 2.8 -7.4 0.4 -1.6 0.7 -1.7 2 -0.6 1.4 1.1 1.6 0.4 1.6 -6.5 0 -4.3 -0.2 -7.6 -0.4 -7.4 -2.4 2.4 -8.6 10.5 -8.6 11.1 0 0.5 0.6 0.8 1.4 0.8 1.2 0 1 1.1 -0.7 6 -1.2 3.3 -2.5 6 -2.8 6 -0.3 0 -1.3 -1.8 -2.2 -4 -1.1 -2.8 -2 -3.8 -3 -3.4 -1.2 0.4 -1.1 1.4 0.7 6 1.8 4.7 2.4 5.4 4.5 5.2 2 -0.2 3 -1.5 4.7 -5.8z m-9.6 -9.4 c0 -0.8 -0.4 -1.7 -0.8 -2 -1.3 -0.8 -3.5 1.1 -2.8 2.3 1 1.6 3.6 1.4 3.6 -0.3z m-2.4 -4.7 c0.3 -0.6 0.2 -1.5 -0.2 -1.9 -1.2 -1.2 -3.8 0.5 -3 1.9 0.9 1.4 2.3 1.4 3.2 0z m-2.3 -6.5 c-0.3 -0.8 -0.9 -1.4 -1.3 -1.4 -1.3 0 -2.2 1.9 -1.5 3 0.9 1.4 3.4 0 2.8 -1.6z m-544.3 -12.9 c0 -1.4 -0.4 -2.5 -0.9 -2.5 -0.4 0 -0.6 1.1 -0.3 2.5 0.2 1.4 0.6 2.5 0.8 2.5 0.2 0 0.4 -1.1 0.4 -2.5z m46.6 -414.5 c1.2 -3 2.5 -6.4 2.8 -7.4 0.4 -1.6 0.7 -1.7 2 -0.6 1.4 1.1 1.6 0.4 1.6 -6.5 0 -4.3 -0.2 -7.6 -0.4 -7.4 -2.4 2.4 -8.6 10.5 -8.6 11.1 0 0.5 0.6 0.8 1.4 0.8 1.2 0 1 1.1 -0.7 6 -1.2 3.3 -2.5 6 -2.8 6 -0.3 0 -1.3 -1.8 -2.2 -4 -1.1 -2.8 -2 -3.8 -3 -3.4 -1.2 0.4 -1.1 1.4 0.7 6 1.8 4.7 2.4 5.4 4.5 5.2 2 -0.2 3 -1.5 4.7 -5.8z m-9.6 -9.4 c0 -0.8 -0.4 -1.7 -0.8 -2 -1.3 -0.8 -3.5 1.1 -2.8 2.3 1 1.6 3.6 1.4 3.6 -0.3z m-2.4 -4.7 c0.3 -0.6 0.2 -1.5 -0.2 -1.9 -1.2 -1.2 -3.8 0.5 -3 1.9 0.9 1.4 2.3 1.4 3.2 0z m-2.3 -6.5 c-0.3 -0.8 -0.9 -1.4 -1.3 -1.4 -1.3 0 -2.2 1.9 -1.5 3 0.9 1.4 3.4 0 2.8 -1.6z m-1009.7 -395.4 c1.2 -3 2.5 -6.4 2.8 -7.4 0.4 -1.6 0.7 -1.7 2 -0.6 1.4 1.1 1.6 0.4 1.6 -6.5 0 -4.3 -0.2 -7.6 -0.4 -7.4 -2.4 2.4 -8.6 10.5 -8.6 11.1 0 0.5 0.6 0.8 1.4 0.8 1.2 0 1 1.1 -0.7 6 -1.2 3.3 -2.5 6 -2.8 6 -0.3 0 -1.3 -1.8 -2.2 -4 -1.1 -2.8 -2 -3.8 -3 -3.4 -1.2 0.4 -1.1 1.4 0.7 6 1.8 4.7 2.4 5.4 4.5 5.2 2 -0.2 3 -1.5 4.7 -5.8z m-9.6 -9.4 c0 -0.8 -0.4 -1.7 -0.8 -2 -1.3 -0.8 -3.5 1.1 -2.8 2.3 1 1.6 3.6 1.4 3.6 -0.3z m-2.4 -4.7 c0.3 -0.6 0.2 -1.5 -0.2 -1.9 -1.2 -1.2 -3.8 0.5 -3 1.9 0.9 1.4 2.3 1.4 3.2 0z m-2.3 -6.5 c-0.3 -0.8 -0.9 -1.4 -1.3 -1.4 -1.3 0 -2.2 1.9 -1.5 3 0.9 1.4 3.4 0 2.8 -1.6z m526.3 -11.4 c1.2 -3 2.5 -6.4 2.8 -7.4 0.4 -1.6 0.7 -1.7 2 -0.6 1.4 1.1 1.6 0.4 1.6 -6.5 0 -4.3 -0.2 -7.6 -0.4 -7.4 -2.4 2.4 -8.6 10.5 -8.6 11.1 0 0.5 0.6 0.8 1.4 0.8 1.2 0 1 1.1 -0.7 6 -1.2 3.3 -2.5 6 -2.8 6 -0.3 0 -1.3 -1.8 -2.2 -4 -1.1 -2.8 -2 -3.8 -3 -3.4 -1.2 0.4 -1.1 1.4 0.7 6 1.8 4.7 2.4 5.4 4.5 5.2 2 -0.2 3 -1.5 4.7 -5.8z m-9.6 -9.4 c0 -0.8 -0.4 -1.7 -0.8 -2 -1.3 -0.8 -3.5 1.1 -2.8 2.3 1 1.6 3.6 1.4 3.6 -0.3z m-2.4 -4.7 c0.3 -0.6 0.2 -1.5 -0.2 -1.9 -1.2 -1.2 -3.8 0.5 -3 1.9 0.9 1.4 2.3 1.4 3.2 0z m-2.3 -6.5 c-0.3 -0.8 -0.9 -1.4 -1.3 -1.4 -1.3 0 -2.2 1.9 -1.5 3 0.9 1.4 3.4 0 2.8 -1.6z m1166.3 -11.4 c1.2 -3 2.5 -6.4 2.8 -7.4 0.4 -1.6 0.7 -1.7 2 -0.6 1.4 1.1 1.6 0.4 1.6 -6.5 0 -4.3 -0.2 -7.6 -0.4 -7.4 -2.4 2.4 -8.6 10.5 -8.6 11.1 0 0.5 0.6 0.8 1.4 0.8 1.2 0 1 1.1 -0.7 6 -1.2 3.3 -2.5 6 -2.8 6 -0.3 0 -1.3 -1.8 -2.2 -4 -1.1 -2.8 -2 -3.8 -3 -3.4 -1.2 0.4 -1.1 1.4 0.7 6 1.8 4.7 2.4 5.4 4.5 5.2 2 -0.2 3 -1.5 4.7 -5.8z m-9.6 -9.4 c0 -0.8 -0.4 -1.7 -0.8 -2 -1.3 -0.8 -3.5 1.1 -2.8 2.3 1 1.6 3.6 1.4 3.6 -0.3z m-2.4 -4.7 c0.3 -0.6 0.2 -1.5 -0.2 -1.9 -1.2 -1.2 -3.8 0.5 -3 1.9 0.9 1.4 2.3 1.4 3.2 0z m-2.3 -6.5 c-0.3 -0.8 -0.9 -1.4 -1.3 -1.4 -1.3 0 -2.2 1.9 -1.5 3 0.9 1.4 3.4 0 2.8 -1.6z m-1137.7 -107.4 c1.2 -3 2.5 -6.4 2.8 -7.4 0.4 -1.6 0.7 -1.7 2 -0.6 1.4 1.1 1.6 0.4 1.6 -6.5 0 -4.3 -0.2 -7.6 -0.4 -7.4 -2.4 2.4 -8.6 10.5 -8.6 11.1 0 0.5 0.6 0.8 1.4 0.8 1.2 0 1 1.1 -0.7 6 -1.2 3.3 -2.5 6 -2.8 6 -0.3 0 -1.3 -1.8 -2.2 -4 -1.1 -2.8 -2 -3.8 -3 -3.4 -1.2 0.4 -1.1 1.4 0.7 6 1.8 4.7 2.4 5.4 4.5 5.2 2 -0.2 3 -1.5 4.7 -5.8z m-9.6 -9.4 c0 -0.8 -0.4 -1.7 -0.8 -2 -1.3 -0.8 -3.5 1.1 -2.8 2.3 1 1.6 3.6 1.4 3.6 -0.3z m-2.4 -4.7 c0.3 -0.6 0.2 -1.5 -0.2 -1.9 -1.2 -1.2 -3.8 0.5 -3 1.9 0.9 1.4 2.3 1.4 3.2 0z m-2.3 -6.5 c-0.3 -0.8 -0.9 -1.4 -1.3 -1.4 -1.3 0 -2.2 1.9 -1.5 3 0.9 1.4 3.4 0 2.8 -1.6z m-753.7 -11.4 c1.2 -3 2.5 -6.4 2.8 -7.4 0.4 -1.6 0.7 -1.7 2 -0.6 1.4 1.1 1.6 0.4 1.6 -6.5 0 -4.3 -0.2 -7.6 -0.4 -7.4 -2.4 2.4 -8.6 10.5 -8.6 11.1 0 0.5 0.6 0.8 1.4 0.8 1.2 0 1 1.1 -0.7 6 -1.2 3.3 -2.5 6 -2.8 6 -0.3 0 -1.3 -1.8 -2.2 -4 -1.1 -2.8 -2 -3.8 -3 -3.4 -1.2 0.4 -1.1 1.4 0.7 6 1.8 4.7 2.4 5.4 4.5 5.2 2 -0.2 3 -1.5 4.7 -5.8z m640 0 c1.2 -3 2.5 -6.4 2.8 -7.4 0.4 -1.6 0.7 -1.7 2 -0.6 1.4 1.1 1.6 0.4 1.6 -6.5 0 -4.3 -0.2 -7.6 -0.4 -7.4 -2.4 2.4 -8.6 10.5 -8.6 11.1 0 0.5 0.6 0.8 1.4 0.8 1.2 0 1 1.1 -0.7 6 -1.2 3.3 -2.5 6 -2.8 6 -0.3 0 -1.3 -1.8 -2.2 -4 -1.1 -2.8 -2 -3.8 -3 -3.4 -1.2 0.4 -1.1 1.4 0.7 6 1.8 4.7 2.4 5.4 4.5 5.2 2 -0.2 3 -1.5 4.7 -5.8z m-649.6 -9.4 c0 -0.8 -0.4 -1.7 -0.8 -2 -1.3 -0.8 -3.5 1.1 -2.8 2.3 1 1.6 3.6 1.4 3.6 -0.3z m640 0 c0 -0.8 -0.4 -1.7 -0.8 -2 -1.3 -0.8 -3.5 1.1 -2.8 2.3 1 1.6 3.6 1.4 3.6 -0.3z m-642.4 -4.7 c0.3 -0.6 0.2 -1.5 -0.2 -1.9 -1.2 -1.2 -3.8 0.5 -3 1.9 0.9 1.4 2.3 1.4 3.2 0z m640 0 c0.3 -0.6 0.2 -1.5 -0.2 -1.9 -1.2 -1.2 -3.8 0.5 -3 1.9 0.9 1.4 2.3 1.4 3.2 0z m-642.3 -6.5 c-0.3 -0.8 -0.9 -1.4 -1.3 -1.4 -1.3 0 -2.2 1.9 -1.5 3 0.9 1.4 3.4 0 2.8 -1.6z m640 0 c-0.3 -0.8 -0.9 -1.4 -1.3 -1.4 -1.3 0 -2.2 1.9 -1.5 3 0.9 1.4 3.4 0 2.8 -1.6z m-113.7 -11.4 c1.2 -3 2.5 -6.4 2.8 -7.4 0.4 -1.6 0.7 -1.7 2 -0.6 1.4 1.1 1.6 0.4 1.6 -6.5 0 -4.3 -0.2 -7.6 -0.4 -7.4 -2.4 2.4 -8.6 10.5 -8.6 11.1 0 0.5 0.6 0.8 1.4 0.8 1.2 0 1 1.1 -0.7 6 -1.2 3.3 -2.5 6 -2.8 6 -0.3 0 -1.3 -1.8 -2.2 -4 -1.1 -2.8 -2 -3.8 -3 -3.4 -1.2 0.4 -1.1 1.4 0.7 6 1.8 4.7 2.4 5.4 4.5 5.2 2 -0.2 3 -1.5 4.7 -5.8z m-9.6 -9.4 c0 -0.8 -0.4 -1.7 -0.8 -2 -1.3 -0.8 -3.5 1.1 -2.8 2.3 1 1.6 3.6 1.4 3.6 -0.3z m-2.4 -4.7 c0.3 -0.6 0.2 -1.5 -0.2 -1.9 -1.2 -1.2 -3.8 0.5 -3 1.9 0.9 1.4 2.3 1.4 3.2 0z m-2.3 -6.5 c-0.3 -0.8 -0.9 -1.4 -1.3 -1.4 -1.3 0 -2.2 1.9 -1.5 3 0.9 1.4 3.4 0 2.8 -1.6z m-753.7 -11.4 c1.2 -3 2.5 -6.4 2.8 -7.4 0.4 -1.6 0.7 -1.7 2 -0.6 1.4 1.1 1.6 0.4 1.6 -6.5 0 -4.3 -0.2 -7.6 -0.4 -7.4 -2.4 2.4 -8.6 10.5 -8.6 11.1 0 0.5 0.6 0.8 1.4 0.8 1.2 0 1 1.1 -0.7 6 -1.2 3.3 -2.5 6 -2.8 6 -0.3 0 -1.3 -1.8 -2.2 -4 -1.1 -2.8 -2 -3.8 -3 -3.4 -1.2 0.4 -1.1 1.4 0.7 6 1.8 4.7 2.4 5.4 4.5 5.2 2 -0.2 3 -1.5 4.7 -5.8z m-9.6 -9.4 c0 -0.8 -0.4 -1.7 -0.8 -2 -1.3 -0.8 -3.5 1.1 -2.8 2.3 1 1.6 3.6 1.4 3.6 -0.3z m-2.4 -4.7 c0.3 -0.6 0.2 -1.5 -0.2 -1.9 -1.2 -1.2 -3.8 0.5 -3 1.9 0.9 1.4 2.3 1.4 3.2 0z m-2.3 -6.5 c-0.3 -0.8 -0.9 -1.4 -1.3 -1.4 -1.3 0 -2.2 1.9 -1.5 3 0.9 1.4 3.4 0 2.8 -1.6z"/>
  <path d="M1412 1421.1 c-24.8 -3.6 -46.3 -22.4 -55.3 -48.4 -1.8 -5.2 -2.1 -8.5 -2.2 -20.7 0 -13.3 0.2 -15.1 2.8 -22.2 3.9 -10.9 8.5 -18.4 17.2 -27.6 8.1 -8.6 17 -14.1 29 -17.8 7.5 -2.4 29.4 -2.7 36.5 -0.5 20.8 6.2 37 20.4 45.5 39.5 4.2 9.4 5.8 17.4 5.8 28.6 0 12.1 -1.8 20.1 -6.7 30.1 -9.1 18.3 -25.3 32.2 -43.6 37.3 -6.7 1.9 -21.6 2.7 -29 1.7z"/>
 </g>
</svg>